<svg width="34" height="29" viewBox="0 0 34 29" fill="none" xmlns="http://www.w3.org/2000/svg">
<path d="M2.2184 28.7346C1.91649 28.734 1.62318 28.634 1.38378 28.45C1.14437 28.2661 0.972187 28.0084 0.893809 27.7168C0.815431 27.4253 0.835221 27.116 0.950123 26.8368C1.06502 26.5576 1.26865 26.324 1.52955 26.1721L20.2848 15.3433C20.6006 15.161 20.976 15.1117 21.3282 15.2061C21.6805 15.3005 21.9808 15.5311 22.163 15.8469C22.3453 16.1628 22.3947 16.5381 22.3002 16.8904C22.2058 17.2426 21.9753 17.5429 21.6594 17.7252L2.90113 28.5509C2.6938 28.6714 2.45822 28.7348 2.2184 28.7346Z" fill="white"/>
<path d="M10.9284 28.9738C10.6264 28.9731 10.3331 28.8731 10.0937 28.6892C9.85433 28.5052 9.68215 28.2476 9.60377 27.956C9.52539 27.6644 9.54518 27.3552 9.66008 27.076C9.77499 26.7968 9.97861 26.5632 10.2395 26.4112L18.668 21.5433C18.8245 21.4451 18.9992 21.3795 19.1816 21.3503C19.364 21.3211 19.5505 21.329 19.7298 21.3734C19.9091 21.4179 20.0776 21.4981 20.2252 21.6092C20.3728 21.7202 20.4966 21.8599 20.589 22.0199C20.6814 22.1798 20.7407 22.3568 20.7632 22.5401C20.7857 22.7235 20.771 22.9095 20.72 23.0871C20.669 23.2647 20.5828 23.4301 20.4664 23.5736C20.35 23.7171 20.2059 23.8356 20.0427 23.9222L11.6142 28.7901C11.4058 28.9107 11.1692 28.9741 10.9284 28.9738Z" fill="white"/>
<path d="M11.5899 12.7805C11.287 12.781 10.9924 12.6815 10.7519 12.4974C10.5114 12.3133 10.3385 12.0549 10.2599 11.7623C10.1814 11.4698 10.2016 11.1595 10.3176 10.8797C10.4335 10.5999 10.6386 10.3662 10.901 10.2149L15.87 7.34622C16.0264 7.25595 16.199 7.19738 16.3781 7.17384C16.5571 7.1503 16.739 7.16226 16.9134 7.20902C17.0878 7.25579 17.2513 7.33645 17.3946 7.44641C17.5378 7.55636 17.658 7.69345 17.7483 7.84985C17.8385 8.00624 17.8971 8.17889 17.9206 8.35792C17.9442 8.53696 17.9322 8.71888 17.8854 8.89329C17.8387 9.0677 17.758 9.2312 17.6481 9.37444C17.5381 9.51768 17.401 9.63786 17.2446 9.72812L12.2757 12.5968C12.0669 12.7165 11.8306 12.7798 11.5899 12.7805Z" fill="white"/>
<path d="M17.3367 14.7866C17.0335 14.7885 16.7382 14.6898 16.497 14.5061C16.2558 14.3224 16.0823 14.0639 16.0036 13.7711C15.9249 13.4783 15.9454 13.1676 16.062 12.8877C16.1785 12.6078 16.3845 12.3744 16.6478 12.224L21.6657 9.32473C21.9816 9.14244 22.357 9.09309 22.7092 9.18754C23.0614 9.28199 23.3617 9.5125 23.544 9.82836C23.7263 10.1442 23.7757 10.5196 23.6812 10.8718C23.5868 11.224 23.3563 11.5244 23.0404 11.7066L18.0225 14.6029C17.8141 14.7235 17.5775 14.7869 17.3367 14.7866Z" fill="white"/>
<path d="M6.9732 20.772C6.67031 20.7725 6.37573 20.6729 6.13522 20.4888C5.89472 20.3047 5.72176 20.0463 5.64321 19.7538C5.56467 19.4612 5.58494 19.151 5.70088 18.8711C5.81682 18.5913 6.02193 18.3576 6.28434 18.2063L12.8851 14.3947C13.2004 14.2226 13.5704 14.1807 13.9162 14.278C14.2619 14.3752 14.5559 14.604 14.7351 14.9152C14.9143 15.2265 14.9646 15.5955 14.8752 15.9434C14.7858 16.2913 14.5638 16.5903 14.2567 16.7766L7.65899 20.5883C7.45004 20.7076 7.2138 20.7708 6.9732 20.772Z" fill="white"/>
<path d="M27.2744 28.7843C27.0329 28.7842 26.7956 28.7205 26.5866 28.5996C26.3775 28.4786 26.204 28.3047 26.0835 28.0954L22.0269 21.0722C21.8446 20.7563 21.7952 20.381 21.8897 20.0287C21.9841 19.6765 22.2147 19.3762 22.5305 19.1939C22.8464 19.0116 23.2217 18.9622 23.574 19.0567C23.9262 19.1511 24.2265 19.3816 24.4088 19.6975L28.4623 26.7208C28.6445 27.0367 28.694 27.4121 28.5998 27.7645C28.5057 28.1168 28.2757 28.4175 27.9602 28.6006C27.7513 28.7199 27.515 28.7832 27.2744 28.7843Z" fill="white"/>
<path d="M27.1921 19.6028C26.9505 19.6027 26.7133 19.539 26.5042 19.418C26.2951 19.2971 26.1216 19.1232 26.0011 18.9139L23.7202 14.9706C23.538 14.6547 23.4886 14.2794 23.5831 13.9271C23.6775 13.5749 23.908 13.2746 24.2239 13.0923C24.5397 12.91 24.9151 12.8607 25.2673 12.9551C25.6196 13.0496 25.9199 13.2801 26.1021 13.5959L28.38 17.5393C28.501 17.7483 28.5648 17.9856 28.565 18.2271C28.5652 18.4687 28.5017 18.706 28.3809 18.9153C28.2602 19.1245 28.0864 19.2982 27.8772 19.4189C27.6679 19.5396 27.4306 19.603 27.189 19.6028H27.1921Z" fill="white"/>
<path d="M20.3735 7.78761C20.1322 7.78816 19.895 7.72505 19.6859 7.60464C19.4768 7.48423 19.3032 7.31078 19.1825 7.10182L16.7333 2.85541C16.6351 2.69893 16.5694 2.52426 16.5402 2.34184C16.511 2.15941 16.5189 1.97298 16.5634 1.79367C16.6079 1.61436 16.688 1.44586 16.7991 1.29823C16.9102 1.1506 17.0499 1.02687 17.2098 0.934435C17.3698 0.842001 17.5467 0.782757 17.7301 0.760245C17.9135 0.737733 18.0995 0.75241 18.277 0.803406C18.4546 0.854402 18.6201 0.94067 18.7636 1.05705C18.907 1.17343 19.0256 1.31753 19.1121 1.48076L21.5614 5.72717C21.6825 5.93576 21.7465 6.17261 21.7469 6.41383C21.7473 6.65505 21.6841 6.89211 21.5636 7.10108C21.4431 7.31006 21.2696 7.48357 21.0607 7.6041C20.8517 7.72464 20.6147 7.78794 20.3735 7.78761Z" fill="white"/>
<path d="M32.473 28.7501C32.2309 28.7491 31.9934 28.6844 31.7843 28.5624C31.5752 28.4404 31.402 28.2654 31.282 28.0552L28.2725 22.8505C28.0902 22.5346 28.0408 22.1593 28.1353 21.807C28.2297 21.4548 28.4603 21.1545 28.7761 20.9722C29.092 20.7899 29.4673 20.7406 29.8196 20.835C30.1718 20.9295 30.4721 21.16 30.6544 21.4758L33.6639 26.6805C33.784 26.8897 33.847 27.1268 33.8467 27.368C33.8465 27.6092 33.7828 27.8461 33.6623 28.055C33.5417 28.2639 33.3684 28.4375 33.1597 28.5584C32.951 28.6793 32.7142 28.7433 32.473 28.744V28.7501Z" fill="white"/>
<path d="M20.0459 28.9897C19.7431 28.9902 19.4485 28.8907 19.208 28.7065C18.9675 28.5224 18.7945 28.264 18.716 27.9715C18.6374 27.679 18.6577 27.3687 18.7736 27.0889C18.8896 26.809 19.0947 26.5753 19.3571 26.4241L21.0195 25.4658C21.334 25.2991 21.7008 25.2608 22.0429 25.3591C22.3849 25.4573 22.6756 25.6844 22.8536 25.9925C23.0317 26.3007 23.0833 26.6659 22.9976 27.0113C22.9119 27.3567 22.6956 27.6554 22.3942 27.8446L20.7317 28.806C20.5228 28.9253 20.2866 28.9886 20.0459 28.9897Z" fill="white"/>
</svg>
